<?xml version="1.0" encoding="utf-8"?>
<!-- Generator: Adobe Illustrator 27.3.1, SVG Export Plug-In . SVG Version: 6.00 Build 0)  -->
<svg version="1.1" id="Layer_1" xmlns="http://www.w3.org/2000/svg" xmlns:xlink="http://www.w3.org/1999/xlink" x="0px" y="0px"
	 viewBox="0 0 50 50" style="enable-background:new 0 0 50 50;" xml:space="preserve">
<style type="text/css">
	.st0{fill:#CD4342;}
</style>
<path class="st0" d="M23.89,46.48c-0.39-14.32-0.21-28.65,0.56-42.96c-0.7,0.19-1.39,0.38-2.09,0.56
	c7.4,9.58,12.82,23.35,26.03,26.04l0.3-2.2c-15.95-0.83-32.42-1.55-47.67,4.05c0.29,0.68,0.58,1.37,0.86,2.05
	c15.08-8.7,32.94-12.18,46.47-23.59c-0.62-0.36-1.25-0.73-1.87-1.09c-2.66,6.44-7.31,12.07-11.27,17.75
	c-4.24,6.07-8.49,12.14-12.73,18.21c-0.83,1.18,1.11,2.3,1.93,1.13c4.4-6.29,8.79-12.58,13.19-18.87
	c3.95-5.65,8.38-11.2,11.03-17.62c0.47-1.14-1.12-1.72-1.87-1.09C33.42,20.1,15.63,23.49,0.75,32.08c-1.07,0.62-0.36,2.5,0.86,2.05
	c15.08-5.54,31.3-4.79,47.07-3.97c1.25,0.06,1.54-1.95,0.3-2.2C36.45,25.41,31.3,12.04,24.29,2.95c-0.66-0.86-2.02-0.62-2.09,0.57
	c-0.77,14.31-0.95,28.64-0.56,42.96C21.69,47.92,23.92,47.92,23.89,46.48"/>
</svg>
